<?xml version="1.0" encoding="utf-8"?>
<!-- Generator: Adobe Illustrator 18.1.1, SVG Export Plug-In . SVG Version: 6.00 Build 0)  -->
<svg version="1.1" id="Layer_1" xmlns="http://www.w3.org/2000/svg" xmlns:xlink="http://www.w3.org/1999/xlink" x="0px" y="0px"
	 viewBox="0 0 800 200" enable-background="new 0 0 800 200" xml:space="preserve">
<g>
	<g>
		<path fill="#24749E" d="M83.4,114.6v-3.5h46.4v3.5c-14.7,0-16.8,3-16.8,20.7v13.5c-19.6,0-27.6,9.2-46,9.2
			c-29.9,0-54.3-25.3-54.3-56.1S37.1,45.8,67,45.8c12.4,0,23.9,5.5,32.9,15c2.3-1.8,5.1-5.7,6-10.1h3.5v38.9h-3.5
			c-4.8-23-18.6-37-38.4-37c-28.3,0-38.6,27.3-38.6,49.2s9.2,48.5,41.9,48.5c15.4,0,29.2-8.3,29.2-24.2
			C100,118.5,95.6,114.6,83.4,114.6z"/>
		<path fill="#24749E" d="M136.5,81.9v-3.5H177v3.5c-11.9,0-14,2.8-14,20.5v25.5c0,17.7,2.1,20.5,14,20.5h6.2
			c16.3,0,18.4-3,20.5-11.3l0.9-3.5h3.7l-1.2,21.4h-70.6v-3.5c11.9,0,14-3,14-20.7v-28.3C150.4,84.7,148.3,81.9,136.5,81.9z"/>
		<path fill="#24749E" d="M260,158c-23.7,0-43.2-18.6-43.2-41.4c0-22.5,19.5-41.2,43.2-41.2s43.2,18.8,43.2,41.2
			C303.2,139.4,283.7,158,260,158z M260,82.1c-20.9,0-28.7,19.3-28.7,34.5c0,15.4,7.8,34.5,28.7,34.5s28.7-19.1,28.7-34.5
			C288.7,101.4,280.9,82.1,260,82.1z"/>
		<path fill="#24749E" d="M338.1,85.3c-16.3,0-17.7,3-19.8,11.3l-0.9,3.5h-3.5l1.1-21.8h78.9l1.2,21.8h-3.7l-0.9-3.5
			c-2.1-8.3-4.2-11.3-20.5-11.3h-9.2v45.5c0,17.7,2.3,20.7,14.2,20.7v3.5h-40.7v-3.5c11.9,0,14.2-3,14.2-20.7V85.3H338.1z"/>
	</g>
	<g>
		<path fill="#464646" d="M486.9,78.7c0,16.5-13.5,29.7-38.1,29.7H433v22.1c0,17.7,2.1,20.7,16.8,20.7v3.7H402v-3.7
			c14.7,0,16.8-3,16.8-20.7V73c0-17.7-2.1-20.5-16.8-20.5v-3.7h46.7C473.5,48.8,486.9,62.3,486.9,78.7z M471.2,78.7
			c0-12.7-7.1-23.4-22.5-23.4h-15.6V102h15.6C464.1,102.1,471.2,91.6,471.2,78.7z"/>
		<path fill="#464646" d="M549.9,135c7.1,8.3,15.2,15.2,23.7,16.5v3.5H551l-24.1-32.9h-5v8.7c0,17.7,2.1,20.7,14,20.7v3.5h-40.5
			v-3.5c11.9,0,14-3,14-20.7v-28.3c0-17.7-2.1-20.5-14-20.5v-3.5H532c18.2,0,28.3,9.4,28.3,21.9c0,10.8-8.1,19.6-21.4,21.4
			L549.9,135z M532.1,84.7H522v30.8h10.1c9.9,0,14.5-6.9,14.5-15.2C546.6,91.8,542,84.7,532.1,84.7z"/>
		<path fill="#464646" d="M644.4,137.1l0.9-3.5h3.5l-1.4,21.4h-66.2v-3.5c11.9,0,14-3,14-20.7v-28.3c0-17.7-2.1-20.5-14-20.5v-3.5
			h39.1h22.8l1.4,21.2h-3.7l-0.9-3.5c-1.9-8.1-4.2-11.3-20.4-11.3h-11.9v26.4h1.1c17.7,0,19.1-2.1,19.1-14h3.5v34.5H628
			c0-11.7-1.4-14-19.1-14h-1.1v10.3c0,17.7,2.1,20.5,14,20.5h2.1C640,148.5,642.3,145.4,644.4,137.1z"/>
		<path fill="#464646" d="M694.5,158c-9.2,0-16.6-4.4-19.8-6.5c-1.1,1.2-2.8,3.5-3.4,6.5h-3.2v-30.4h3.5c1.4,15,11,23.5,24.2,23.5
			c7.6,0,13.6-4.2,13.6-11.9c0-6.2-5-11-14.5-15.8l-12-6.2c-8.5-4.4-14.7-11.7-14.7-21.6c0-11.2,9.4-20.2,22.1-20.2
			c7.4,0,13.1,2.7,16.8,5.3c0.9-1.1,2.3-2.7,2.7-5.5h3.5v29.9h-3.5c-1.1-10.6-5.8-23.2-18.6-23.2c-6.9,0-12.7,3.7-12.7,10.3
			c0,6.2,4.6,9.6,15.4,15.2l11.9,6.2c10.1,5.1,13.8,13.1,13.8,20C719.7,148.3,708.2,158,694.5,158z"/>
		<path fill="#464646" d="M765,158c-9.2,0-16.6-4.4-19.8-6.5c-1.1,1.2-2.8,3.5-3.4,6.5h-3.2v-30.4h3.5c1.4,15,11,23.5,24.2,23.5
			c7.6,0,13.6-4.2,13.6-11.9c0-6.2-5-11-14.5-15.8l-12-6.2c-8.5-4.4-14.7-11.7-14.7-21.6c0-11.2,9.4-20.2,22.1-20.2
			c7.4,0,13.1,2.7,16.8,5.3c0.9-1.1,2.3-2.7,2.7-5.5h3.5v29.9h-3.5c-1.1-10.6-5.8-23.2-18.6-23.2c-6.9,0-12.7,3.7-12.7,10.3
			c0,6.2,4.6,9.6,15.4,15.2l11.9,6.2c10.1,5.1,13.8,13.1,13.8,20C790.1,148.3,778.6,158,765,158z"/>
	</g>
</g>
</svg>
